<?xml version="1.0" encoding="UTF-8"?>
<svg viewBox="0 0 100 100" fill="none" xmlns="http://www.w3.org/2000/svg">
<rect width="100" height="100"/>
<mask id="mask0" mask-type="alpha" maskUnits="userSpaceOnUse" x="15" y="53" width="70" height="32">
<path d="M24.7807 53.7017C24.9112 53.2842 25.2978 53 25.7352 53H74.2648C74.7022 53 75.0888 53.2842 75.2193 53.7017L84.5943 83.7017C84.7955 84.3457 84.3145 85 83.6398 85H16.3602C15.6856 85 15.2045 84.3457 15.4057 83.7017L24.7807 53.7017Z" fill="#E28D8D"/>
</mask>
<g mask="url(#mask0)">
<rect width="36.1862" height="70.8687" rx="1" transform="matrix(0.154823 -0.987942 0.999946 0.0104279 14.4939 86.2229)" fill="#E6E6E6"/>
<rect width="45.8651" height="3" rx="1" transform="matrix(0.40583 0.913949 -0.963115 0.26909 16.0443 34.5191)" fill="#CCCCCC"/>
<rect width="45.8651" height="3" rx="1" transform="matrix(0.40583 0.913949 -0.963115 0.26909 6.92621 37)" fill="#CCCCCC"/>
<path d="M45.3435 51.0207C45.5267 51.0473 45.6989 51.1242 45.841 51.2429L100.18 96.6443C100.605 96.9991 100.661 97.6315 100.305 98.0551L99.663 98.8183C99.3077 99.2411 98.6768 99.2958 98.2541 98.9404L43.0773 52.561C42.3067 51.9133 42.8682 50.6613 43.8645 50.8059L45.3435 51.0207Z" fill="#CCCCCC"/>
<rect width="41.0493" height="3" rx="1" transform="matrix(0.963054 -0.269308 0.405655 0.914026 24.105 58.0549)" fill="#CCCCCC"/>
<rect width="48.9203" height="3" rx="1" transform="matrix(0.963054 -0.269308 0.405655 0.914026 29.5247 90.1747)" fill="#CCCCCC"/>
<path d="M13.4731 82.0733C13.1505 81.5465 13.383 80.9319 13.9667 80.7687L80.5946 62.1368C81.0761 62.0022 81.6334 62.2257 81.8995 62.6603L82.4368 63.5375C82.7594 64.0643 82.5269 64.6789 81.9432 64.8421L15.3153 83.4739C14.8338 83.6086 14.2765 83.385 14.0104 82.9505L13.4731 82.0733Z" fill="#CCCCCC"/>
</g>
<path d="M70.5455 36.0811C70.5455 47.7238 49.2727 67 49.2727 67C49.2727 67 28 47.7238 28 36.0811C28 24.4383 37.5241 15 49.2727 15C61.0213 15 70.5455 24.4383 70.5455 36.0811Z" fill="#92C46D"/>
<path fill-rule="evenodd" clip-rule="evenodd" d="M47.063 24.7957C49.3916 24.4953 51.7546 24.9651 53.785 26.1312L54.781 24.3969C52.3709 23.0127 49.568 22.456 46.8071 22.8122C44.0461 23.1684 41.4796 24.4179 39.5062 26.3686C37.5328 28.3195 36.263 30.8627 35.8959 33.6042C35.5288 36.3457 36.0852 39.1301 37.4778 41.5249C38.8703 43.9196 41.0204 45.7901 43.5929 46.8479C46.1652 47.9056 49.0174 48.0923 51.7074 47.3792C54.3974 46.6661 56.7764 45.0925 58.4742 42.9008C59.9891 40.9452 60.8857 38.5952 61.0614 36.1471C62.977 35.7088 64.4229 33.9996 64.4229 31.9564V30.3066V29.3066H63.4229H62.5905V26.1821L60.5905 26.1821V29.3066H59.2609V26.1821L57.2609 26.1821V29.3066H56.7636H55.7636V30.3066V31.9564C55.7636 33.9752 57.1751 35.6678 59.0566 36.1308C58.8878 38.1396 58.1403 40.0659 56.8931 41.676C55.4656 43.5188 53.4629 44.8447 51.1949 45.446C48.9267 46.0472 46.5217 45.8897 44.3535 44.9982C42.1855 44.1067 40.3768 42.5317 39.2068 40.5196C38.0368 38.5076 37.5702 36.1701 37.8782 33.8696C38.1863 31.5691 39.2521 29.4321 40.9123 27.791C42.5726 26.1497 44.7345 25.0962 47.063 24.7957ZM57.7636 31.3066V31.9564C57.7636 33.2104 58.8057 34.2561 60.0933 34.2561C61.3808 34.2561 62.4229 33.2104 62.4229 31.9564V31.3066H57.7636ZM45.1126 34.6979L48.4422 29.7484L50.1017 30.8648L47.8202 34.2561H50.9368H52.8147L51.7665 35.8143L48.4368 40.7637L46.7774 39.6474L49.0588 36.2561H45.9423H44.0643L45.1126 34.6979Z" fill="white"/>
</svg>
