<?xml version="1.0" encoding="UTF-8"?>
<svg viewBox="0 0 100 100" version="1.1" xmlns="http://www.w3.org/2000/svg" xmlns:xlink="http://www.w3.org/1999/xlink">
    <title>EMobility tool L</title>
    <g id="EMobility-tool-L" stroke="none" stroke-width="1" fill="none" fill-rule="evenodd">
        <path d="M49,85 C68.3299662,85 84,69.3299662 84,50 C84,30.6700338 68.3299662,15 49,15 C29.6700338,15 14,30.6700338 14,50" id="Oval" stroke="#4C4C4C" stroke-width="3" transform="translate(49.000000, 50.000000) rotate(180.000000) translate(-49.000000, -50.000000) "></path>
        <g id="Group-2" transform="translate(74.500000, 32.500000) rotate(-20.000000) translate(-74.500000, -32.500000) translate(67.000000, 21.000000)">
            <g id="Group" transform="translate(0.926183, 0.000000)">
                <polygon id="Rectangle" fill="#4C4C4C" transform="translate(6.894742, 3.103374) scale(-1, -1) rotate(172.000000) translate(-6.894742, -3.103374) " points="3.11639985 2.30530016 10.1980913 1.24732897 10.6730849 3.93634537 3.52001463 4.95941975"></polygon>
                <path d="M5.20284055,4.88431865 C2.22185822,5.65628592 0.930397895,8.53860366 1.32845957,13.5312719 C1.72652125,18.5239401 4.12060625,21.1830471 8.51071458,21.5085929" id="Path-13" stroke="#4C4C4C" stroke-width="2" transform="translate(4.884417, 13.196456) scale(-1, -1) rotate(172.000000) translate(-4.884417, -13.196456) "></path>
                <path d="M7.61161033,3.65993493 C9.82575922,3.65560097 10.9328337,3.65343399 10.9328337,3.65343399 C12.6596851,9.0518857 12.8994358,14.8461135 11.6520859,21.0361174 L4.87066634,19.8707956 C4.87458686,17.8952159 5.59433298,16.4603414 7.02990469,15.5661722 C8.09056867,14.9055205 8.85549429,12.6551793 7.0414647,9.74098962 C6.39609111,8.70421431 6.58613965,6.67719609 7.61161033,3.65993493 Z" id="Rectangle-Copy-3" fill="#D8D8D8" transform="translate(8.653721, 12.344776) scale(-1, 1) rotate(-172.000000) translate(-8.653721, -12.344776) "></path>
            </g>
            <polygon id="Path-14" fill="#4C4C4C" transform="translate(11.353472, 21.229394) scale(-1, -1) rotate(172.000000) translate(-11.353472, -21.229394) " points="8.83564606 19.9837495 8.84057444 22.4672007 12.8446107 22.4750382 13.8712978 19.9936062"></polygon>
        </g>
        <g id="Group-3" transform="translate(18.000000, 19.000000)" fill="#646464">
            <rect id="Rectangle" x="30" y="0" width="2" height="5" rx="1"></rect>
            <path d="M3,29 C3.55228475,29 4,29.4477153 4,30 L4,33 C4,33.5522847 3.55228475,34 3,34 C2.44771525,34 2,33.5522847 2,33 L2,30 C2,29.4477153 2.44771525,29 3,29 Z" id="Rectangle" transform="translate(3.000000, 31.500000) rotate(-90.000000) translate(-3.000000, -31.500000) "></path>
            <path d="M60,29 C60.5522847,29 61,29.4477153 61,30 L61,33 C61,33.5522847 60.5522847,34 60,34 C59.4477153,34 59,33.5522847 59,33 L59,30 C59,29.4477153 59.4477153,29 60,29 Z" id="Rectangle" transform="translate(60.000000, 31.500000) rotate(-90.000000) translate(-60.000000, -31.500000) "></path>
            <rect id="Rectangle" x="30" y="56" width="2" height="5" rx="1"></rect>
        </g>
        <path d="M24.318276,33.6160254 C24.8705607,33.6160254 25.318276,34.0637407 25.318276,34.6160254 L25.318276,37.6160254 C25.318276,38.1683102 24.8705607,38.6160254 24.318276,38.6160254 C23.7659912,38.6160254 23.318276,38.1683102 23.318276,37.6160254 L23.318276,34.6160254 C23.318276,34.0637407 23.7659912,33.6160254 24.318276,33.6160254 Z" id="Rectangle" fill="#646464" transform="translate(24.318276, 36.116025) rotate(-60.000000) translate(-24.318276, -36.116025) "></path>
        <path d="M73.681724,62.1160254 C74.2340088,62.1160254 74.681724,62.5637407 74.681724,63.1160254 L74.681724,66.1160254 C74.681724,66.6683102 74.2340088,67.1160254 73.681724,67.1160254 C73.1294393,67.1160254 72.681724,66.6683102 72.681724,66.1160254 L72.681724,63.1160254 C72.681724,62.5637407 73.1294393,62.1160254 73.681724,62.1160254 Z" id="Rectangle" fill="#646464" transform="translate(73.681724, 64.616025) rotate(-60.000000) translate(-73.681724, -64.616025) "></path>
        <rect id="Rectangle" fill="#646464" transform="translate(35.066987, 73.498711) rotate(30.000000) translate(-35.066987, -73.498711) " x="34.0669873" y="70.9987113" width="2" height="5" rx="1"></rect>
        <path d="M34.3839746,22.818276 C34.9362593,22.818276 35.3839746,23.2659912 35.3839746,23.818276 L35.3839746,26.818276 C35.3839746,27.3705607 34.9362593,27.818276 34.3839746,27.818276 C33.8316898,27.818276 33.3839746,27.3705607 33.3839746,26.818276 L33.3839746,23.818276 C33.3839746,23.2659912 33.8316898,22.818276 34.3839746,22.818276 Z" id="Rectangle" fill="#646464" transform="translate(34.383975, 25.318276) rotate(-30.000000) translate(-34.383975, -25.318276) "></path>
        <path d="M62.8839746,72.181724 C63.4362593,72.181724 63.8839746,72.6294393 63.8839746,73.181724 L63.8839746,76.181724 C63.8839746,76.7340088 63.4362593,77.181724 62.8839746,77.181724 C62.3316898,77.181724 61.8839746,76.7340088 61.8839746,76.181724 L61.8839746,73.181724 C61.8839746,72.6294393 62.3316898,72.181724 62.8839746,72.181724 Z" id="Rectangle" fill="#646464" transform="translate(62.883975, 74.681724) rotate(-30.000000) translate(-62.883975, -74.681724) "></path>
        <rect id="Rectangle" fill="#646464" transform="translate(25.001289, 63.066987) rotate(60.000000) translate(-25.001289, -63.066987) " x="24.0012887" y="60.5669873" width="2" height="5" rx="1"></rect>
        <polygon id="Path-15" fill="#92C46D" transform="translate(50.000000, 49.000000) rotate(-360.000000) translate(-50.000000, -49.000000) " points="55.9028777 29 39 52.6850045 49.9115489 52.6850045 44.17813 69 61 45.5227252 49.9115489 45.5227252"></polygon>
        <path d="M83.9659457,50 C83.9659457,46.1270781 83.1439638,43.1978313 81.5,41.2122597" id="Path-17" stroke="#4C4C4C" stroke-width="3"></path>
    </g>
</svg>