<?xml version="1.0" encoding="UTF-8"?>
<svg  viewBox="0 0 100 100" fill="none" xmlns="http://www.w3.org/2000/svg">
<rect width="100" height="100"/>
<path fill-rule="evenodd" clip-rule="evenodd" d="M28.3794 67.7648C29.085 67.9289 29.7909 67.4895 29.9551 66.7838L33.1978 52.8435C34.5 49 23 51.5 34.5 51C34.9704 51.1094 35 52 34.9023 53.24L31.6596 67.1803C31.2764 68.8277 29.6303 69.8525 27.9829 69.4693C26.3355 69.0861 25.2893 67.5318 25.5189 66.5446C25.5189 66.5446 26.484 66.5539 27.2234 66.9411C27.4713 67.2969 27.6737 67.6007 28.3794 67.7648Z" fill="#4A4A4A"/>
<path fill-rule="evenodd" clip-rule="evenodd" d="M49.6955 18.1877C54.6374 17.5501 59.6528 18.5471 63.9628 21.0224L65.4569 18.4209C60.5773 15.6185 54.9021 14.4911 49.3116 15.2124C43.7211 15.9336 38.5249 18.4636 34.5303 22.4125C30.5354 26.3616 27.9658 31.509 27.2229 37.0567C26.48 42.6046 27.606 48.2395 30.4245 53.0866C33.2429 57.9334 37.5951 61.7201 42.8036 63.8618C48.0119 66.0035 53.7871 66.3814 59.2337 64.9375C64.6805 63.4936 69.4966 60.3078 72.9331 55.8715C76.0881 51.7985 77.9178 46.8811 78.1966 41.7723C82.1143 41.0819 85.1245 37.6706 85.1245 33.5712V30.157V28.657H83.6245H81.5616V21.5616H78.5616V28.657H74.5616V21.5616H71.5616V28.657H69.8434H68.3434V30.157V33.5712C68.3434 37.6431 71.3133 41.036 75.1924 41.758C74.9197 46.2044 73.3131 50.4821 70.5614 54.0343C67.5304 57.9472 63.2788 60.7616 58.465 62.0377C53.651 63.3139 48.5466 62.9796 43.9445 61.0873C39.3427 59.195 35.5026 55.8515 33.0179 51.5785C30.5333 47.3058 29.542 42.3413 30.1963 37.4549C30.8507 32.5685 33.1145 28.0305 36.6393 24.546C40.1644 21.0613 44.7536 18.8253 49.6955 18.1877ZM71.3434 31.657V33.5712C71.3434 36.4857 73.7598 38.8997 76.734 38.8997C79.7082 38.8997 82.1245 36.4857 82.1245 33.5712V31.657H71.3434ZM46.2045 39.5625L53.095 29.3197L55.5842 30.9943L50.266 38.8997H57.7849H60.6018L59.0295 41.237L52.1389 51.4797L49.6498 49.8052L54.968 41.8997H47.4491H44.6321L46.2045 39.5625Z" fill="#92C46D"/>
<path d="M20.253 70.2974L23.4574 58.337L35.4175 61.5421L43.7572 75.9869L28.5927 84.7421L20.253 70.2974Z" fill="#92C46D"/>
<path fill-rule="evenodd" clip-rule="evenodd" d="M35.7839 61.064L44.5172 76.1905L28.3891 85.5021L19.6558 70.3756L23.064 57.6558L35.7839 61.064ZM23.8509 59.0187L20.8499 70.2186L28.7963 83.9822L42.9973 75.7832L35.0509 62.0197L23.8509 59.0187Z" fill="#92C46D"/>
<path d="M28.7401 61.8391C29.3265 62.8549 28.9786 64.1536 27.9627 64.74C26.9469 65.3265 25.6483 64.9786 25.0618 63.9627C24.4753 62.9469 24.8233 61.6483 25.8391 61.0618C26.8549 60.4753 28.1536 60.8233 28.7401 61.8391Z" fill="#F6F6F6"/>
<path fill-rule="evenodd" clip-rule="evenodd" d="M29.8622 72.3687C30.8396 72.3687 31.4516 71.7201 31.4516 70.5791C31.4516 69.4281 30.858 68.7888 29.8622 68.7888C28.9126 68.7888 28.2823 69.4281 28.2734 70.5791C28.2734 71.7201 28.8853 72.3687 29.8622 72.3687ZM29.2781 75.3278H30.191L34.3283 68.8985H33.4243L29.2781 75.3278ZM29.2597 70.5791C29.2597 71.1449 29.4516 71.5287 29.8622 71.5287C30.2733 71.5287 30.4652 71.1449 30.4652 70.5791C30.4652 69.9671 30.31 69.6289 29.8622 69.6289C29.4605 69.6289 29.2597 69.9671 29.2597 70.5791ZM33.7708 75.4646C34.7388 75.4646 35.3602 74.8254 35.3602 73.6744C35.3602 72.524 34.7572 71.8848 33.7708 71.8848C32.8123 71.8848 32.182 72.524 32.182 73.6744C32.182 74.816 32.7845 75.4646 33.7708 75.4646ZM33.1684 73.6744C33.1684 74.2408 33.3603 74.6246 33.7708 74.6246C34.1731 74.6246 34.3739 74.2408 34.3739 73.6744C34.3739 73.063 34.2092 72.7159 33.7708 72.7159C33.3603 72.7159 33.1684 73.063 33.1684 73.6744Z" fill="#F6F6F6"/>
<path fill-rule="evenodd" clip-rule="evenodd" d="M31.9072 51.2196C31.1953 51.0853 30.5084 51.554 30.3741 52.2659L27.7196 63.3301C27.6301 63.8048 27.1722 64.1173 26.6975 64.0277C26.2229 63.9381 25.9104 63.4802 26 63.0056L28.6544 51.9414C28.9681 50.2794 30.5697 49.1863 32.2318 49.5C33.8938 49.8137 35.5 50.5 34.8247 53.432C34.8247 53.432 34.755 53.3558 34 53C33.5 51.5 32.6192 51.354 31.9072 51.2196Z" fill="#4A4A4A"/>
</svg>
