<?xml version="1.0" encoding="UTF-8"?>
<svg width="100" height="100" viewBox="0 0 100 100" fill="none" xmlns="http://www.w3.org/2000/svg">
<rect width="100" height="100" fill="white"/>
<path d="M28 62C28 62 35.2601 62 40.2514 62C48.2427 62 48.2427 51 40.292 51.0012L36.1676 51" stroke="#92C46D" stroke-width="4"/>
<path d="M38 62C38 62 30.8394 62 25.9164 62C14.0346 62 13.5 80.998 25.8764 80.998L49.9443 81" stroke="#92C46D" stroke-width="4"/>
<path d="M43 28.8739C43 36.5362 29 49.2222 29 49.2222C29 49.2222 15 36.5362 15 28.8739C15 21.2115 21.268 15 29 15C36.732 15 43 21.2115 43 28.8739Z" fill="#92C46D"/>
<circle cx="29" cy="29.671" r="5" fill="#F6F6F6"/>
<mask id="mask0" mask-type="alpha" maskUnits="userSpaceOnUse" x="48" y="15" width="37" height="70">
<rect x="48" y="15" width="37" height="70" fill="#C4C4C4"/>
</mask>
<g mask="url(#mask0)">
<path fill-rule="evenodd" clip-rule="evenodd" d="M55.1001 79.0564C55.1001 79.0564 52.2942 70.5869 56.6449 67.6493C60.9955 64.7116 69.0288 62.1306 70.1352 62.1306C71.2416 62.1306 85.483 53.0845 89.0104 52.4178C92.5377 51.7511 102.012 51.2371 107.24 51.2371C112.469 51.2371 125.074 52.3281 126.551 53.1641C128.029 54.0001 131.352 59.3627 131.352 60.3474C131.352 61.3322 131.695 66.7384 132.363 67.6493C133.03 68.5601 134 69.5571 134 71.9798C134 74.4025 133.82 77.9093 133.091 78.4828C132.363 79.0563 55.1001 79.0564 55.1001 79.0564Z" fill="#CCCCCC"/>
<mask id="mask1" mask-type="alpha" maskUnits="userSpaceOnUse" x="54" y="51" width="80" height="29">
<path fill-rule="evenodd" clip-rule="evenodd" d="M55.1001 79.0564C55.1001 79.0564 52.2942 70.5869 56.6449 67.6493C60.9955 64.7116 69.0288 62.1306 70.1352 62.1306C71.2416 62.1306 85.483 53.0845 89.0104 52.4178C92.5377 51.7511 102.012 51.2371 107.24 51.2371C112.469 51.2371 125.074 52.3281 126.551 53.1641C128.029 54.0001 131.352 59.3627 131.352 60.3474C131.352 61.3322 131.695 66.7384 132.363 67.6493C133.03 68.5601 134 69.5571 134 71.9798C134 74.4025 133.82 77.9093 133.091 78.4828C132.363 79.0563 55.1001 79.0564 55.1001 79.0564Z" fill="white"/>
</mask>
<g mask="url(#mask1)">
<path fill-rule="evenodd" clip-rule="evenodd" d="M54 65.7648H61.4554L56.9841 70.241H54V65.7648Z" fill="#D8D8D8"/>
<mask id="mask2" mask-type="alpha" maskUnits="userSpaceOnUse" x="54" y="65" width="8" height="6">
<path fill-rule="evenodd" clip-rule="evenodd" d="M54 65.7648H61.4554L56.9841 70.241H54V65.7648Z" fill="white"/>
</mask>
<g mask="url(#mask2)">
<path d="M50.7527 65.0934H63.6776L60.1526 68.54H50.7527V65.0934Z" fill="#4A4A4A"/>
<path d="M60.231 70.2634V66.8168H55.4918L51.9375 69.1137L50.7527 70.2634H60.231Z" fill="#646464"/>
<path d="M60.231 68.5401L61.9543 66.8168H58.5076L60.231 68.5401Z" fill="#929292"/>
</g>
</g>
<path fill-rule="evenodd" clip-rule="evenodd" d="M79.2879 61.0577C79.2879 60.4141 87.4579 56.0305 91.2588 54.9452C94.2233 54.1841 101.632 54.1841 105.295 54.1841C108.958 54.1841 120.393 54.1812 121.515 54.9452C122.637 55.7091 124.463 57.9204 124.463 58.8962C124.463 59.8721 124.463 62.6055 124.463 62.6055H81.6531C81.6531 62.6055 79.2879 61.7014 79.2879 61.0577Z" fill="#4A4A4A"/>
<path fill-rule="evenodd" clip-rule="evenodd" d="M64.9107 79.7236H55.3131L54.7048 77.0108H133.514L132.648 79.7236H64.9107Z" fill="#4A4A4A"/>
<path fill-rule="evenodd" clip-rule="evenodd" d="M68.9588 85C72.893 85 76.0836 81.8094 76.0836 77.8751C76.0836 73.9409 72.893 70.7503 68.9588 70.7503C65.0245 70.7503 61.8339 73.9409 61.8339 77.8751C61.8339 81.8094 65.0245 85 68.9588 85Z" fill="#4A4A4A"/>
<path fill-rule="evenodd" clip-rule="evenodd" d="M68.9588 81.9444C71.2061 81.9444 73.028 80.1225 73.028 77.8751C73.028 75.6277 71.2061 73.8059 68.9588 73.8059C66.7114 73.8059 64.8895 75.6277 64.8895 77.8751C64.8895 80.1225 66.7114 81.9444 68.9588 81.9444Z" fill="#EFEFEF"/>
<path d="M77.2711 77.8751C77.2711 76.784 77.0567 75.7024 76.6387 74.6941C76.2207 73.6857 75.6086 72.7697 74.8364 71.9975C74.0642 71.2253 73.1482 70.6132 72.1398 70.1952C71.1315 69.7772 70.0499 69.5628 68.9588 69.5628C67.8676 69.5628 66.786 69.7772 65.7777 70.1952C64.7693 70.6132 63.8533 71.2253 63.0811 71.9975C62.3089 72.7697 61.6968 73.6857 61.2788 74.6941C60.8608 75.7024 60.6464 76.784 60.6464 77.8751H62.6427C62.6427 77.0459 62.807 76.2249 63.1245 75.4581C63.4421 74.6927 63.9062 73.9965 64.4925 73.4089C65.0801 72.8226 65.7763 72.3585 66.5417 72.0409C67.3085 71.7233 68.1296 71.5591 68.9588 71.5591C69.788 71.5591 70.609 71.7233 71.3758 72.0409C72.1412 72.3585 72.8374 72.8226 73.425 73.4089C74.0113 73.9965 74.4754 74.6927 74.793 75.4581C75.1106 76.2249 75.2748 77.0459 75.2748 77.8751H77.2711Z" fill="#4A4A4A"/>
</g>
</svg>
