<?xml version="1.0" encoding="UTF-8"?>
<svg width="100" height="100" viewBox="0 0 100 100" fill="none" xmlns="http://www.w3.org/2000/svg">
<rect width="100" height="100" fill="white"/>
<mask id="mask0" mask-type="alpha" maskUnits="userSpaceOnUse" x="48" y="15" width="37" height="70">
<rect x="48" y="15" width="37" height="70" fill="#C4C4C4"/>
</mask>
<g mask="url(#mask0)">
<rect x="50" y="15" width="35" height="70" fill="#EFEFEF"/>
<path d="M63.3188 62.4349L64.807 58.9566H61V60.116L63.3188 62.4349Z" fill="#646464"/>
<path d="M70.8551 77.5073V78.9937C70.8551 80.4139 69.7038 81.5653 68.2835 81.5653H64.1513C62.731 81.5653 61.5797 80.4139 61.5797 78.9937V76.4337L62.2609 76.6957C62.4191 76.7566 62.5786 76.8145 62.7391 76.8684C63.9919 77.291 65.3067 77.5073 66.6313 77.5073H69.6957H70.8551Z" fill="#4C4C4C"/>
<path d="M91.1449 77.5074H70.8551H69.6957H66.6313C65.3067 77.5074 63.9919 77.2911 62.7391 76.8685C62.5786 76.8146 62.4191 76.7566 62.2609 76.6958L61.5797 76.4338V75.192V65.7874L62.6406 63.4535H63.9142H98.0858H99.3594L100.42 65.7874V75.192V76.4338L99.7391 76.6958C99.5809 76.7566 99.4214 76.8146 99.2609 76.8685C98.0081 77.2911 96.6933 77.5074 95.3687 77.5074H92.3043H91.1449Z" fill="#646464"/>
<path d="M69.1159 67.0725L62.7391 65.9131V66.9131V68.2319L69.6957 68.8116L69.1159 67.0725Z" fill="#4C4C4C"/>
<path d="M62.7391 69.9712L70.2754 70.5509L69.6957 68.8117L66.2174 68.5219L62.7391 69.9712Z" fill="#D9D9D9"/>
<path d="M62.7391 68.2317V69.9709L66.2174 68.5216L62.7391 68.2317Z" fill="#7D7D7D"/>
<path d="M67.3768 75.1883V73.4492H62.7391V74.6086L67.3768 75.1883Z" fill="#7D7D7D"/>
<path d="M67.3768 73.4492V75.1883L69.1159 75.7837H92.8841L94.6232 75.1883V73.4492L81 73.7391L67.3768 73.4492Z" fill="#4C4C4C"/>
<path d="M72.3044 71.1303L70.8551 67.0724H78.3913L79.5508 68.2318H82.4493L83.6087 67.0724H91.145L89.6957 71.1303L88.8261 71.71H73.1739L72.3044 71.1303Z" fill="#4C4C4C"/>
<path fill-rule="evenodd" clip-rule="evenodd" d="M81 52C77.6232 52 74.3501 52.1456 71.9229 52.2909C70.7084 52.3636 69.7049 52.4363 69.004 52.4909C68.6539 52.5181 68.3791 52.5409 68.1919 52.5569C68.0985 52.5649 68.0266 52.5712 67.978 52.5755L67.9229 52.5804L67.9038 52.5821L67.5681 52.6129L63.1675 62.2939L62.6406 63.4533H63.9142H98.0858H99.3594L98.8319 62.2939L94.4319 52.6129L94.0962 52.5821L94.0771 52.5804L94.022 52.5755C93.9733 52.5712 93.9014 52.5649 93.8081 52.5569C93.6208 52.5409 93.3461 52.5181 92.9959 52.4909C92.295 52.4363 91.2916 52.3636 90.0771 52.2909C87.6498 52.1456 84.3768 52 81 52ZM93.6557 53.7078C93.4736 53.6921 93.2209 53.6713 92.9055 53.6469C92.211 53.5924 91.2145 53.5205 90.0081 53.4481C87.5942 53.3037 84.3461 53.1594 81 53.1594C77.6539 53.1594 74.4058 53.3037 71.9919 53.4481C70.7855 53.5205 69.789 53.5924 69.0945 53.6469C68.7791 53.6713 68.5264 53.6921 68.3444 53.7078L64.4412 62.2939H97.5588L93.6557 53.7078Z" fill="#4A4A4A"/>
<path fill-rule="evenodd" clip-rule="evenodd" d="M93.6557 53.7078C93.4736 53.6921 93.2209 53.6713 92.9055 53.6469C92.211 53.5924 91.2145 53.5206 90.0081 53.4481C87.5942 53.3037 84.3461 53.1594 81 53.1594C77.6539 53.1594 74.4058 53.3037 71.9919 53.4481C70.7855 53.5206 69.789 53.5924 69.0945 53.6469C68.7791 53.6713 68.5264 53.6921 68.3444 53.7078L64.4412 62.2939H97.5588L93.6557 53.7078Z" fill="#7D7D7D"/>
<path d="M92.9055 53.6469C93.2209 53.6713 93.4736 53.6921 93.6557 53.7078L97.5588 62.2939H64.4412L68.3444 53.7078C68.5264 53.6921 68.7791 53.6713 69.0945 53.6469C69.789 53.5924 70.7855 53.5206 71.9919 53.4481C74.4058 53.3037 77.6539 53.1594 81 53.1594C84.3461 53.1594 87.5942 53.3037 90.0081 53.4481C91.2145 53.5206 92.211 53.5924 92.9055 53.6469Z" fill="#7D7D7D"/>
</g>
<mask id="mask1" mask-type="alpha" maskUnits="userSpaceOnUse" x="15" y="15" width="37" height="70">
<rect x="15" y="15" width="37" height="70" fill="#C4C4C4"/>
</mask>
<g mask="url(#mask1)">
<rect x="15" y="15" width="35" height="70" fill="#95C469"/>
<path d="M35.1936 58.9567L36.6812 62.4349L39 60.1161V58.9567H35.1936Z" fill="#D9D9D9"/>
<path d="M38.4203 78.9937C38.4203 80.4139 37.269 81.5653 35.8487 81.5653H31.7165C30.2962 81.5653 29.1449 80.4139 29.1449 78.9937V77.5073H30.3043H33.3687C34.6933 77.5073 36.0081 77.291 37.2609 76.8684C37.4214 76.8145 37.5809 76.7566 37.7391 76.6957L38.4203 76.4337V78.9937Z" fill="#4C4C4C"/>
<path d="M29.1451 77.5074H8.85525H7.69583H4.63149C3.30685 77.5074 1.99207 77.2912 0.739315 76.8686C0.578735 76.8147 0.419315 76.7567 0.261054 76.6958L-0.420105 76.4338V75.1921V65.7874L0.640764 63.4535H1.91439H36.086H37.3596L38.4205 65.7874V75.1921V76.4338L37.7393 76.6958C37.581 76.7567 37.4216 76.8147 37.261 76.8686C36.0083 77.2912 34.6935 77.5074 33.3689 77.5074H30.3045H29.1451Z" fill="#E6E6E6"/>
<path d="M30.8841 67.0725L37.2609 65.9131V68.2319L30.3044 68.8116L30.8841 67.0725Z" fill="#4C4C4C"/>
<path d="M29.7246 70.551L37.2609 69.9712L33.7826 68.522L30.3044 68.8118L29.7246 70.551Z" fill="#7D7D7D"/>
<path d="M37.2609 69.9708V68.2317L33.7827 68.5215L37.2609 69.9708Z" fill="#646464"/>
<path d="M32.6232 73.4492V75.1883L36.971 74.6086V73.4492H32.6232Z" fill="#646464"/>
<path d="M5.3768 73.4492V75.1883L7.11593 75.7837H30.8841L32.6232 75.1883V73.4492L19 73.739L5.3768 73.4492Z" fill="#4C4C4C"/>
<path d="M10.3042 71.1302L8.85492 67.0723H16.3912L17.5506 68.2317H20.4491L21.6085 67.0723H29.1448L27.6955 71.1302L26.8259 71.7099H11.1738L10.3042 71.1302Z" fill="#4C4C4C"/>
<path fill-rule="evenodd" clip-rule="evenodd" d="M19 52C15.6232 52 12.3501 52.1456 9.92288 52.2909C8.70839 52.3636 7.70491 52.4363 7.00404 52.4909C6.6539 52.5181 6.37911 52.5409 6.19187 52.5569C6.09853 52.5649 6.02665 52.5712 5.97795 52.5755L5.92288 52.5804L5.90375 52.5821L5.5681 52.6129L1.16752 62.2939L0.640564 63.4533H1.91419H36.0858H37.3594L36.8319 62.2939L32.4319 52.6129L32.0962 52.5821L32.0771 52.5804L32.022 52.5755C31.9733 52.5712 31.9014 52.5649 31.8081 52.5569C31.6208 52.5409 31.3461 52.5181 30.9959 52.4909C30.295 52.4363 29.2916 52.3636 28.0771 52.2909C25.6498 52.1456 22.3768 52 19 52ZM31.6557 53.7078C31.4737 53.6921 31.2209 53.6713 30.9056 53.6469C30.2111 53.5924 29.2146 53.5205 28.0082 53.4481C25.5943 53.3037 22.3462 53.1594 19.0001 53.1594C15.654 53.1594 12.4059 53.3037 9.99196 53.4481C8.78558 53.5205 7.78906 53.5924 7.09457 53.6469C6.7792 53.6713 6.52645 53.6921 6.34442 53.7078L2.44123 62.2939H35.5589L31.6557 53.7078Z" fill="#4A4A4A"/>
<path fill-rule="evenodd" clip-rule="evenodd" d="M31.6557 53.7078C31.4737 53.6921 31.2209 53.6713 30.9056 53.6469C30.2111 53.5924 29.2146 53.5206 28.0082 53.4481C25.5943 53.3037 22.3462 53.1594 19.0001 53.1594C15.654 53.1594 12.4059 53.3037 9.99195 53.4481C8.78557 53.5206 7.78905 53.5924 7.09456 53.6469C6.77919 53.6713 6.52644 53.6921 6.34441 53.7078L2.44122 62.2939H35.5589L31.6557 53.7078Z" fill="#7D7D7D"/>
<path d="M30.9056 53.6469C31.2209 53.6713 31.4737 53.6921 31.6557 53.7078L35.5589 62.2939H2.44122L6.34441 53.7078C6.52644 53.6921 6.77919 53.6713 7.09456 53.6469C7.78905 53.5924 8.78557 53.5206 9.99195 53.4481C12.4059 53.3037 15.654 53.1594 19.0001 53.1594C22.3462 53.1594 25.5943 53.3037 28.0082 53.4481C29.2146 53.5206 30.2111 53.5924 30.9056 53.6469Z" fill="#7D7D7D"/>
</g>
<path fill-rule="evenodd" clip-rule="evenodd" d="M29.8726 25.0811C31.8462 24.8265 33.8491 25.2246 35.5705 26.2132L36.0685 25.3461C34.1573 24.2484 31.9344 23.8068 29.7446 24.0893C27.5548 24.3718 25.5196 25.3628 23.9552 26.9094C22.3906 28.456 21.3843 30.4718 21.0934 32.6443C20.8025 34.8168 21.2434 37.0235 22.3472 38.9217C23.4509 40.8198 25.1555 42.3029 27.1955 43.1418C29.2356 43.9806 31.4976 44.1287 33.631 43.5631C35.7645 42.9976 37.6507 41.7497 38.9966 40.0123C40.2475 38.3975 40.9664 36.4437 41.0616 34.4164C42.6026 34.1812 43.7962 32.8535 43.7962 31.2542V29.9046V29.4046H43.2962H42.6154V26.5295H41.6154V29.4046H39.8916V26.5305H38.8916V29.4046H37.8487H37.3487V29.9046V31.2542C37.3487 32.8456 38.5307 34.1682 40.0606 34.4129C39.9669 36.2189 39.3223 37.9589 38.206 39.3999C36.9953 40.9629 35.2972 42.0869 33.3748 42.5965C31.4523 43.1062 29.4138 42.9727 27.5759 42.2169C25.738 41.4612 24.2042 40.1259 23.2117 38.419C22.2192 36.7122 21.8232 34.7291 22.0846 32.777C22.346 30.825 23.2503 29.0123 24.6582 27.6205C26.0662 26.2287 27.899 25.3357 29.8726 25.0811ZM41.6154 30.4046H39.8916V30.5793H38.8916V30.4046H38.3487V31.2542C38.3487 32.4584 39.3463 33.4534 40.5725 33.4534C41.7987 33.4534 42.7962 32.4584 42.7962 31.2542V30.4046H42.6154V30.5793H41.6154V30.4046ZM28.5816 33.6743L31.3054 29.6255L32.1351 30.1837L29.9354 33.4534H33.0821H34.0211L33.497 34.2325L30.7732 38.2814L29.9435 37.7232L32.1431 34.4534H28.9965H28.0575L28.5816 33.6743Z" fill="white"/>
<path d="M63.793 43L64.793 42H69.207L70.207 43H71V40.125H63V43H63.793Z" fill="#4A4A4A"/>
<path d="M71 25H63V38.875H71V25ZM69.5 29.125H64.5V27.875H69.5V29.125Z" fill="#4A4A4A"/>
<path d="M71.5 43.5H70L69 42.5H65L64 43.5H62.5V40.125H62V44H64.207L65.207 43H68.793L69.793 44H72V40.125H71.5V43.5Z" fill="#4A4A4A"/>
<path d="M62 38.875H62.5V24.5H71.5V38.875H72V24H62V38.875Z" fill="#4A4A4A"/>
<path d="M63 25H71V38.875H71.5V24.5H62.5V38.875H63V25Z" fill="#4A4A4A"/>
<path d="M71 43H70.207L69.207 42H64.793L63.793 43H63V40.125H62.5V43.5H64L65 42.5H69L70 43.5H71.5V40.125H71V43Z" fill="#4A4A4A"/>
<path d="M73.1465 26.8535L75 28.707V40.5C75 40.6326 74.9473 40.7598 74.8536 40.8536C74.7598 40.9473 74.6326 41 74.5 41C74.3674 41 74.2402 40.9473 74.1464 40.8536C74.0527 40.7598 74 40.6326 74 40.5V31H73V40.5C73 40.8978 73.158 41.2794 73.4393 41.5607C73.7206 41.842 74.1022 42 74.5 42C74.8978 42 75.2794 41.842 75.5607 41.5607C75.842 41.2794 76 40.8978 76 40.5V28.293L73.8535 26.1465L73.1465 26.8535Z" fill="#4A4A4A"/>
</svg>
